<svg width="139" height="144" viewBox="0 0 139 144" fill="none" xmlns="http://www.w3.org/2000/svg">
<path id="Vector" d="M82.8511 114.317L49.8364 84.2846L39.173 93.8194C37.3285 91.6639 35.6257 89.2508 34.0647 86.5799C32.5037 83.909 31.1553 81.0135 30.0197 77.8934C28.9219 74.8772 28.0936 71.7924 27.5347 68.639C26.9759 65.4856 26.7244 62.3676 26.7802 59.2849L26.7377 59.6537L43.6872 59.1382L45.957 13.4367L44.4675 12.7421C38.6514 10.0299 31.9093 9.95146 24.2414 12.5068C16.5735 15.0621 11.2416 19.1817 8.2458 24.8657C8.17964 25.0075 7.99774 25.3976 7.70007 26.036C7.4024 26.6744 7.22049 27.0645 7.15435 27.2063C5.14161 31.708 3.50244 36.427 2.23683 41.3634C1.07524 46.2619 0.362826 51.262 0.0996001 56.3636C-0.163629 61.4652 0.107401 66.5784 0.912692 71.7033C1.71798 76.8283 3.04807 81.9389 4.90295 87.0351C6.75783 92.1314 9.02395 96.9013 11.7013 101.345C14.3786 105.788 17.4577 109.88 20.9386 113.618C24.4195 117.357 28.1792 120.73 32.2178 123.735C36.2185 126.637 40.5075 129.199 45.0848 131.419C45.2266 131.486 45.5908 131.677 46.1771 131.994C46.7635 132.31 47.1796 132.483 47.4254 132.511C49.3357 133.229 51.3949 133.628 53.6028 133.708C55.8108 133.787 57.9927 133.553 60.1484 133.004L60.3045 132.947L60.8723 134.507L56.0092 141.047C55.7729 141.369 55.617 141.749 55.5415 142.189C55.466 142.629 55.5039 143.057 55.6553 143.473C55.8825 144.097 56.2537 144.551 56.7692 144.834C57.2846 145.118 57.8213 145.217 58.3791 145.132L63.8255 144.563L59.4873 151.089C59.251 151.41 59.121 151.781 59.0975 152.202C59.074 152.623 59.138 153.041 59.2894 153.457C59.5165 154.081 59.8878 154.535 60.4032 154.819C60.9187 155.102 61.4553 155.201 62.0132 155.116L62.07 155.272L66.9916 154.717L64.8649 157.612C64.6286 157.933 64.4727 158.314 64.3971 158.754C64.3216 159.193 64.3596 159.621 64.511 160.037L65.4195 162.533C65.6845 163.261 66.1362 163.774 66.7745 164.072C67.4129 164.37 68.0961 164.386 68.8241 164.121C69.5521 163.856 70.065 163.404 70.3626 162.766C70.6603 162.128 70.6766 161.444 70.4117 160.716L70.0142 159.624L74.8205 152.928C75.0568 152.606 75.2127 152.226 75.2882 151.786C75.3637 151.346 75.3258 150.918 75.1743 150.502C74.9472 149.878 74.5759 149.425 74.0605 149.141C73.5451 148.858 73.0084 148.758 72.4506 148.844L67.0042 149.413L71.3424 142.887C71.5787 142.565 71.7086 142.194 71.7321 141.773C71.7557 141.352 71.6917 140.934 71.5403 140.518C71.3132 139.894 70.9419 139.44 70.4265 139.157C69.911 138.873 69.3744 138.774 68.8165 138.859L68.7597 138.703L63.8381 139.258L65.9648 136.364C66.2011 136.042 66.357 135.661 66.4325 135.222C66.508 134.782 66.4701 134.354 66.3187 133.938L65.2966 131.13C69.0029 129.663 72.2905 127.613 75.1596 124.978C78.0286 122.344 80.3279 119.358 82.0573 116.019L82.8511 114.317ZM49.3388 127.574C49.1969 127.508 48.9132 127.376 48.4876 127.177C48.062 126.979 47.7074 126.814 47.4237 126.681C43.272 124.659 39.2667 122.23 35.4078 119.394C31.5868 116.663 28.0707 113.555 24.8594 110.071C21.6481 106.588 18.8125 102.761 16.3527 98.5918C13.789 94.4602 11.6364 90.0024 9.8951 85.2181C8.15378 80.4339 6.93726 75.6353 6.24553 70.8224C5.4498 66.0474 5.17887 61.258 5.43273 56.4542C5.68659 51.6505 6.3471 46.9932 7.41425 42.4824C8.54755 37.8297 10.1064 33.3755 12.0909 29.1198C12.157 28.9779 12.2893 28.6942 12.4878 28.2686C12.6862 27.843 12.8185 27.5593 12.8847 27.4174C14.1606 25.4219 15.7652 23.6011 17.6984 21.9552C19.6316 20.3093 21.8463 19.0321 24.3424 18.1236C24.5504 18.0479 24.7324 17.9817 24.8884 17.9249C25.0444 17.8681 25.1744 17.8208 25.2784 17.7829C25.3824 17.7451 25.4864 17.7072 25.5904 17.6694C25.6944 17.6315 25.7984 17.5937 25.9024 17.5558C28.3985 16.6473 30.897 16.1502 33.3981 16.0643C35.8991 15.9785 38.3317 16.2709 40.6959 16.9416L40.4831 16.8424L38.6646 54.0759L26.5943 54.4057C26.3485 54.3774 26.0861 54.3845 25.8071 54.4272C25.5282 54.4698 25.2327 54.5479 24.9207 54.6614C23.8807 55.04 23.0582 55.6927 22.4533 56.6195C21.8484 57.5464 21.5083 58.5536 21.433 59.641C21.415 62.8277 21.6973 66.1112 22.2799 69.4916C22.8625 72.8719 23.7783 76.2782 25.0275 79.7104C26.2389 83.0385 27.7173 86.2106 29.4628 89.2266C31.2083 92.2425 33.15 95.0693 35.2878 97.7069L35.1175 97.2389C35.5526 97.7872 36.0988 98.2362 36.7561 98.5859C37.4134 98.9356 38.0399 99.1198 38.6356 99.1385C39.0234 99.233 39.4087 99.24 39.7916 99.1595C40.1746 99.079 40.574 98.963 40.99 98.8116C41.3021 98.698 41.6046 98.5585 41.8977 98.3929C42.1908 98.2274 42.4744 98.0358 42.7485 97.8182L42.5925 97.875L49.8244 91.5327L76.3694 115.439C73.7892 119.676 69.7101 123.193 64.132 125.989C58.5539 128.784 53.6228 129.313 49.3388 127.574ZM124.178 98.7451C117.626 101.13 111.035 102.115 104.407 101.701C97.6739 101.325 91.3995 99.7805 85.5833 97.0683C79.7672 94.3561 74.5511 90.5421 69.9352 85.6263C65.3571 80.8146 61.8756 75.1325 59.4908 68.5802C57.1059 62.0279 56.1205 55.4373 56.5346 48.8085C56.9108 42.0757 58.455 35.8012 61.167 29.985C63.8791 24.1688 67.693 18.9527 72.6086 14.3368C77.4203 9.75868 83.1022 6.27724 89.6544 3.89244C96.2066 1.50764 102.797 0.522311 109.426 0.936458C116.158 1.31277 122.433 2.85701 128.249 5.5692C134.065 8.2814 139.281 12.0954 143.897 17.0112C148.475 21.823 151.957 27.505 154.342 34.0573C156.726 40.6097 157.712 47.2002 157.298 53.829C156.922 60.5618 155.377 66.8363 152.665 72.6525C149.953 78.4687 146.139 83.6848 141.224 88.3008C136.412 92.8788 130.73 96.3603 124.178 98.7451ZM91.4714 8.88467C85.6473 11.0045 80.5326 14.1028 76.1274 18.1796C71.864 22.3226 68.5086 27.0185 66.0611 32.2672C63.6136 37.516 62.1733 43.1049 61.7401 49.034C61.4488 55.0292 62.3631 60.9389 64.4829 66.7632C66.6028 72.5875 69.7011 77.7023 73.7779 82.1076C77.9209 86.3711 82.6167 89.7266 87.8655 92.1742C93.1142 94.6218 98.703 96.0622 104.632 96.4955C110.627 96.7869 116.537 95.8727 122.361 93.7528C128.185 91.633 133.3 88.5347 137.705 84.4579C141.968 80.3149 145.324 75.6191 147.771 70.3703C150.219 65.1215 151.659 59.5326 152.092 53.6035C152.384 47.6084 151.469 41.6986 149.349 35.8743C147.23 30.0501 144.131 24.9353 140.054 20.5299C135.911 16.2665 131.216 12.9109 125.967 10.4633C120.718 8.01576 115.129 6.57533 109.2 6.14205C103.205 5.85064 97.2956 6.76485 91.4714 8.88467ZM127.334 29.7532L114.854 34.2957L110.311 21.8151C109.819 20.463 108.899 19.4727 107.552 18.8443C106.204 18.2159 104.854 18.1477 103.502 18.6398L88.5258 24.0908C87.1737 24.5829 86.1835 25.5028 85.5551 26.8504C84.9267 28.1981 84.8586 29.5479 85.3507 30.9L89.8932 43.3806L77.4129 47.9231C76.0608 48.4152 75.0706 49.3351 74.4422 50.6827C73.8138 52.0304 73.7456 53.3803 74.2378 54.7323L79.6888 69.7091C80.1809 71.0611 81.1008 72.0514 82.4485 72.6798C83.7961 73.3083 85.146 73.3764 86.498 72.8843L98.9784 68.3419L103.521 80.8225C104.013 82.1745 104.933 83.1648 106.281 83.7932C107.628 84.4217 108.978 84.4898 110.33 83.9977L125.307 78.5467C126.659 78.0546 127.649 77.1348 128.277 75.7871C128.906 74.4394 128.974 73.0896 128.482 71.7375L123.939 59.2569L136.419 54.7144C137.772 54.2223 138.762 53.3024 139.39 51.9548C140.019 50.6071 140.087 49.2572 139.595 47.9052L134.143 32.9285C133.651 31.5764 132.732 30.5861 131.384 29.9577C130.036 29.3293 128.686 29.2611 127.334 29.7532ZM134.602 49.7222L122.122 54.2647C120.77 54.7568 119.78 55.6766 119.151 57.0243C118.523 58.372 118.455 59.7218 118.947 61.0739L123.49 73.5545L108.513 79.0055L103.971 66.5249C103.478 65.1728 102.559 64.1825 101.211 63.5541C99.8632 62.9257 98.5134 62.8575 97.1613 63.3496L84.681 67.8921L79.2299 52.9154L91.7103 48.3729C93.0623 47.8808 94.0525 46.9609 94.6809 45.6132C95.3093 44.2656 95.3775 42.9157 94.8854 41.5636L90.3428 29.083L105.319 23.632L109.862 36.1127C110.354 37.4647 111.274 38.455 112.621 39.0834C113.969 39.7118 115.319 39.78 116.671 39.2879L129.151 34.7454L134.602 49.7222Z" fill="#283B6A" fill-opacity="0.05"/>
</svg>
